<svg xmlns="http://www.w3.org/2000/svg" xmlns:xlink="http://www.w3.org/1999/xlink" xmlns:inkscape="http://www.inkscape.org/namespaces/inkscape" version="1.1" width="510.2362" height="583.937" viewBox="0 0 510.2362 583.937">
<g inkscape:groupmode="layer" inkscape:label="Layer 1">
<path transform="matrix(1,0,0,-1,0,583.937)" d="M430.9044 378.6375C416.192 411.9089 388.9585 445.8671 362.5288 466.6893 361.8607 457.7 361.2112 448.9724 360.5525 440.1133 357.5506 440.7721 354.549 441.4309 351.5471 442.0896 343.542 449.2817 400.6454 398.6427 400.595 378.1979 410.6985 378.3438 420.8009 378.4912 430.9044 378.6375" fill="#e3000f" fill-rule="evenodd"/>
<path transform="matrix(1,0,0,-1,0,583.937)" d="M48.0495 376.9614C62.7622 410.2328 89.9955 444.1907 116.4254 465.0129 117.0933 456.0236 117.743 447.296 118.4017 438.4369 121.4033 439.0957 124.4052 439.7545 127.4068 440.4135 135.4119 447.6056 78.3085 396.9666 78.359 376.5217 68.2554 376.6677 58.1533 376.8151 48.0495 376.9614" fill="#e3000f" fill-rule="evenodd"/>
<path transform="matrix(1,0,0,-1,0,583.937)" d="M96.6229 209.7527C104.7855 209.7527 112.9465 209.7527 121.1091 209.7527 174.9124 111.3324 337.4138 87.4071 411.1744 210.6938 423.7319 210.066 436.2883 209.4381 448.846 208.8102 386.1456 67.0215 174.8908 55.7283 96.6229 209.7527" fill="#e3000f" fill-rule="evenodd"/>
<path transform="matrix(1,0,0,-1,0,583.937)" d="M46.2353 208.8088C53.6119 209.1234 60.99 209.4367 68.3666 209.7513 115.6703 106.9359 208.5106 65.266 300.632 78.3734 300.6805 75.2737 300.729 72.1729 300.7772 69.0732 191.0679 58.9771 88.8021 103.6953 46.2353 208.8088" fill="#e3000f" fill-rule="evenodd"/>
<text fill="#e3000f" xml:space="preserve" transform="matrix(1.1785585 0 -0 .84849426 0 583.937)" font-size="185.8516" font-family="BaskOldFace"><tspan y="-487.94755" x="156.01084">J</tspan></text>
<text fill="#e3000f" xml:space="preserve" transform="matrix(1.1068876 0 -0 .90343418 0 583.937)" font-size="174.87938" font-family="BaskOldFace"><tspan y="-458.05665" x="244.48906">J</tspan></text>
<text fill="#e3000f" xml:space="preserve" transform="matrix(1.2013326 0 -0 .8324089 0 583.937)" font-size="111.373149" font-family="Century"><tspan y="-320.03334" x="51.426645 113.35013 175.2736 210.35614 266.04273 327.96623">Jalebi</tspan></text>
<text fill="#e3000f" xml:space="preserve" transform="matrix(1 0 -0 1 0 583.937)" font-size="32.615" font-family="Century"><tspan y="-521.2772" x="118.0035 144.58473 160.89223">New</tspan></text>
</g>
</svg>
